<svg width="132" height="66" viewBox="0 0 132 66" fill="none" xmlns="http://www.w3.org/2000/svg">
<path d="M60.9596 17.0981C60.9457 17.1111 60.9458 17.1388 60.9319 17.1517C60.6461 17.8173 60.2451 18.444 59.7867 19.0171C59.7867 19.0301 59.7728 19.043 59.7589 19.0578C59.4294 19.4442 59.086 19.8047 58.7149 20.1504C58.1433 20.6829 57.4843 21.1635 56.7976 21.5758C56.3252 21.8698 55.839 22.1212 55.3249 22.3356C53.5367 23.0955 51.5638 23.4689 49.6902 23.2951V23.3081C49.5037 23.4819 49.333 23.6686 49.1325 23.8535C49.0174 23.9736 48.8884 24.1067 48.7614 24.2399C47.8603 25.1587 46.9155 26.1182 45.8716 27.0777C44.8415 28.0501 43.7261 28.9967 42.4816 29.8749C41.9954 30.2354 41.4813 30.5681 40.9514 30.888C35.9161 33.7129 29.5371 34.4579 23.9599 32.8994C22.0427 32.354 20.2127 31.5406 18.5674 30.448C17.7239 29.8878 16.922 29.2629 16.1797 28.5419L15.3938 27.6896C15.3938 27.6896 15.5089 27.636 15.7093 27.5436C15.9098 27.4511 16.2095 27.2903 16.5667 27.1036C16.7811 26.9963 17.0093 26.8762 17.2674 26.7579C17.839 26.451 18.4979 26.1052 19.1271 25.7854C20.1988 25.2123 21.215 24.6392 21.7727 24.2657C31.9704 17.4179 32.9429 14.8186 40.1952 13.0882L40.2666 13.2342C32.9151 15.1125 30.069 22.2543 22.517 27.8893C21.9315 28.3293 21.3301 28.7545 20.6871 29.1686C26.3079 32.086 33.7884 31.6201 39.1949 28.37C40.1952 27.771 41.0824 27.0518 41.8981 26.292C44.0873 24.2269 45.8021 21.7496 47.9476 19.6439C49.2774 18.3257 50.7937 17.1517 52.711 16.3401C54.9716 15.4601 57.5459 15.9001 59.6616 16.5805C59.7608 15.621 59.0761 15.009 58.2882 14.4488C58.1175 14.3416 57.9309 14.2362 57.7443 14.142C54.4397 12.3708 50.2777 12.1176 46.4313 11.9826L45.5441 11.9697C33.8301 -7.64194 6.78788 4.62641 6.37307 24.7575C6.34528 26.3437 6.32742 28.3164 6.37307 30.1577C8.87584 29.8786 10.7872 29.2759 13.3475 28.4365L14.6912 29.8878C15.2767 30.448 15.8919 30.9675 16.5787 31.474C16.0686 31.707 15.5347 31.9436 14.9909 32.171V41.0543C16.9359 39.7879 18.9107 38.723 20.8419 37.843L23.8746 36.5378L28.122 42.0009L27.0343 43.3467C26.3198 44.3063 25.647 45.4525 25.1468 46.8649C24.7896 47.8633 24.5891 48.8893 24.5891 49.9967C24.5891 50.6105 24.6328 51.1818 24.7181 51.7549C24.9761 53.6203 25.8911 55.5393 27.4074 57.4842H23.2018L22.2292 55.885C21.5147 54.8053 20.9709 53.4336 20.5839 51.7549C20.3834 50.7566 20.2544 49.6898 20.2544 48.5177C20.2544 47.6654 20.2981 46.7854 20.4251 45.8666C18.9087 47.0923 17.0927 49.1574 14.9889 52.0211L8.75279 47.9317V34.1104C8.21889 34.2287 6.99231 34.469 6.3691 34.5596C6.29765 38.956 6.3691 57.4842 6.3691 57.4842H0.11714C0.11714 57.205 4.08312e-05 26.56 4.08312e-05 25.1883C-0.0138524 16.342 3.519 9.86578 8.68134 5.69684C10.3128 4.47666 13.155 2.83681 13.5579 2.6316C24.9861 -2.80374 40.3619 0.22082 46.0125 11.3318C54.2512 11.1322 59.1138 12.8645 60.6163 14.8888C61.1601 15.608 61.2752 16.3808 60.9596 17.1V17.0981Z" fill="#00424D"/>
<path d="M49.4831 30.5832V26.3588C47.8278 28.0374 45.9701 29.8381 43.7015 31.4318C43.4971 31.587 43.2748 31.7423 43.0505 31.881V45.9593C42.0661 45.1976 41.0995 44.5727 40.133 44.0883C39.9285 43.9682 39.742 43.8813 39.5375 43.7944C38.3864 43.2749 37.2511 42.9107 36.1357 42.7554C36.0444 42.7387 35.9511 42.7387 35.8578 42.7203C35.6911 42.687 35.5045 42.6685 35.318 42.6685C35.2822 42.6685 35.2445 42.6518 35.2068 42.6685C34.9468 42.6518 34.7047 42.6518 34.4447 42.6518C34.0537 42.6518 33.6448 42.6685 33.2737 42.7203C32.9958 42.7554 32.7358 42.7905 32.4738 42.8589C32.3071 42.8774 32.1582 42.9107 31.9915 42.9624C31.7117 43.0327 31.4338 43.1196 31.154 43.2065C30.7828 43.3433 30.4117 43.5171 30.0584 43.7075C29.2407 44.1919 28.5162 44.7983 28.1431 45.6117C27.6965 46.3401 27.4365 47.1887 27.4365 48.0188C27.4365 49.1964 27.8831 50.2521 28.7008 51.1358C29.5741 52.0361 30.8027 52.5908 32.3448 52.7294C32.6227 52.7812 32.8827 52.7812 33.1248 52.7812C34.2224 52.7812 35.0957 52.5908 35.8955 52.1582C36.6378 51.7588 37.2332 51.2744 37.66 50.7383C38.0688 50.2188 38.5352 49.4738 38.9997 48.4514C40.6728 48.5734 42.084 49.0227 43.3125 49.9064C44.5193 50.7716 45.5791 51.7588 46.3611 52.8681C47.1411 53.9755 47.9211 55.4989 48.7031 57.5084H49.4831V34.6874H51.8807V38.4958L54.9471 40.7809C55.2826 40.7643 55.5426 40.7643 55.8026 40.7643C57.4955 40.7643 59.0179 41.232 60.302 42.1323C60.5421 42.2876 60.7664 42.4966 61.0085 42.7203C60.4131 42.6334 59.8733 42.6001 59.3156 42.6001C57.7178 42.6001 56.2313 42.9624 54.9293 43.6724C54.1115 44.1401 53.3871 44.7631 53.014 45.5784C52.5694 46.305 52.3094 47.1369 52.3094 47.967C52.3094 49.1613 52.754 50.2003 53.5717 51.084C54.447 51.9844 55.6735 52.539 57.2336 52.6777C57.4956 52.7461 57.7556 52.7461 57.9957 52.7461C59.0933 52.7461 59.9666 52.539 60.7664 52.1045C61.5107 51.7071 62.1041 51.2393 62.5328 50.6847C62.9417 50.1837 63.4061 49.4386 63.8706 48.3996C65.5437 48.5216 66.9568 48.9894 68.1834 49.8546C69.3921 50.7198 70.45 51.7071 71.232 52.8145C72.012 53.9237 72.792 55.4637 73.574 57.4548H74.354V34.6874H85.935C84.244 36.8856 83.3886 39.1022 83.3886 41.3707C83.3886 43.1011 83.9642 44.5394 84.9863 45.6302C86.2129 46.7894 87.5883 47.4124 89.188 47.4642H89.7636C90.9346 47.4642 92.0699 47.1702 93.2032 46.6174C94.3186 46.1146 95.174 45.4046 95.6742 44.5561C95.7675 45.2309 95.8052 45.7171 95.8052 45.9408C95.8052 47.7766 95.2475 49.0929 94.132 50.0099C92.9789 50.9102 91.3812 51.3946 89.2615 51.3946C86.8083 51.3946 84.8017 50.6329 83.2774 49.1613C81.7531 47.6028 80.6734 45.8021 80.0423 43.6724C79.3734 41.526 79.0757 39.448 79.0757 37.4051V36.7118H76.8072C76.8072 37.1463 76.7714 37.8211 76.7714 38.6511C76.7714 42.5298 77.478 45.8021 78.8713 48.4699C80.2467 51.1524 81.9754 53.1435 84.1309 54.4247C86.2883 55.7244 88.4636 56.3641 90.6746 56.3641C92.8856 56.3641 94.8942 55.6893 96.5117 54.4081C98.0737 53.04 98.8915 51.2393 98.8915 48.9543C98.8915 46.8245 98.1095 44.4174 96.5495 41.733C95.4519 42.4429 94.3186 42.9809 93.2766 43.4653C92.1989 43.9164 91.2879 44.1401 90.4702 44.1401C89.8569 44.1401 89.3746 43.9848 88.9836 43.6724C88.6303 43.3618 88.4259 42.8774 88.4259 42.2525V41.6997C88.5192 40.4001 89.0392 39.2409 90.0792 38.237C91.0835 37.198 92.5145 36.0888 94.3186 34.9814C94.7453 38.531 96.994 40.7643 101.029 41.648C100.34 43.2398 99.9315 45.0072 99.9315 46.9798C99.9315 48.4348 100.191 52.0528 100.582 55.3602C98.165 55.4304 96.3252 55.9315 95.0053 56.9021C93.612 57.9928 92.9055 59.2389 92.9055 60.7105C92.9055 62.0786 93.481 63.308 94.6342 64.3636C95.7873 65.4378 97.2739 65.9739 99.1515 65.9739C108.408 66.0793 107.608 59.0318 107.608 59.0318C111.286 60.0228 114.075 62.6498 115.46 64.5762H118.689C118.689 64.5762 114.636 57.1757 106.493 56.0017C106.104 55.1014 105.695 54.3563 105.509 53.9588C104.913 52.539 103.278 48.2795 104.58 45.8724C105.286 44.6947 106.364 43.8628 107.813 43.3618L105.024 37.8895C103.853 38.2703 102.962 38.4607 102.273 38.4607H101.809C101.067 38.4274 100.416 38.0984 99.8203 37.4735C99.2448 36.8856 98.9847 36.2626 98.9847 35.5878C98.9847 35.2235 99.076 34.9462 99.2447 34.6874H122.792L110.226 41.648V49.5773C117.05 49.5089 123.258 51.7939 128.556 57.5084H129.391V34.6874H131.777V30.5832H49.4831ZM67.9234 45.9241C66.7881 45.0072 65.6171 44.2972 64.4104 43.7426C64.0928 39.8473 62.1796 36.8505 58.7221 34.6874H67.9234V45.9241ZM101.085 59.0485C101.085 60.0191 100.898 60.729 100.416 61.2134C99.9692 61.646 99.3737 61.8715 98.7228 61.8715C98.3139 61.8715 97.9427 61.8197 97.5895 61.6108C97.2739 61.4555 97.0695 61.2134 97.0317 60.936C96.994 60.8658 96.9583 60.729 96.9583 60.5718C96.9583 59.9839 97.3473 59.4811 98.036 59.0485C98.7426 58.6159 99.7469 58.4088 100.973 58.4088H101.085V59.0485ZM125.656 50.3741C122.476 47.9319 118.87 46.183 116.659 45.9241L125.656 40.4352V50.3741Z" fill="#00424D"/>
<path d="M119.438 53.0343C118.241 52.6109 117.166 52.5555 116.09 52.8938C115.076 53.2192 114.379 53.796 114.091 54.6427C113.788 55.4895 113.986 56.3787 114.562 57.3086C115.199 58.2108 116.062 58.8745 117.273 59.3127C118.378 59.7083 119.516 59.736 120.53 59.4107C121.56 59.0576 122.257 58.4789 122.544 57.6322C122.848 56.7854 122.65 55.8962 122.06 55.0069C121.485 54.0752 120.56 53.4262 119.44 53.0325L119.438 53.0343Z" fill="#00424D"/>
<path d="M28.5653 12.6793L26.3523 12.8179L25.2229 14.5964L24.3953 12.6793L22.2319 12.2263L23.9329 10.9008L23.7264 8.84497L25.606 9.94313L27.6424 9.12413L27.1005 11.1282L28.5653 12.6793Z" fill="#00424D"/>
<path d="M22.7663 15.7272L22.3416 16.696L21.774 15.7919L20.6526 15.7124L21.4008 14.9304L21.1329 13.9136L22.163 14.3351L23.1196 13.7842L23.0085 14.8269L23.8659 15.5035L22.7663 15.7272Z" fill="#00424D"/>
<path d="M30.7084 10.6253L30.0138 11.4517L29.7319 10.4367L28.676 10.0762L29.6247 9.51419L29.6664 8.46594L30.5338 9.13334L31.6154 8.84679L31.2026 9.82108L31.8298 10.69L30.7084 10.6253Z" fill="#00424D"/>
</svg>
